<?xml version="1.0" encoding="UTF-8" standalone="no"?>
<!-- Created with Inkscape (http://www.inkscape.org/) -->

<svg
   xmlns:dc="http://purl.org/dc/elements/1.1/"
   xmlns:cc="http://creativecommons.org/ns#"
   xmlns:rdf="http://www.w3.org/1999/02/22-rdf-syntax-ns#"
   xmlns:svg="http://www.w3.org/2000/svg"
   xmlns="http://www.w3.org/2000/svg"
   xmlns:sodipodi="http://sodipodi.sourceforge.net/DTD/sodipodi-0.dtd"
   xmlns:inkscape="http://www.inkscape.org/namespaces/inkscape"
   width="402.50696mm"
   height="147.86703mm"
   viewBox="0 0 281.75487 103.50692"
   version="1.1"
   id="svg8"
   sodipodi:docname="halicin_network_nodes.svg"
   inkscape:version="0.92.3 (2405546, 2018-03-11)"
   inkscape:export-filename="/home/stephan/chemprop_blogpost/halicin_network_nodes_color_edges.png"
   inkscape:export-xdpi="45"
   inkscape:export-ydpi="45">
  <defs
     id="defs2" />
  <sodipodi:namedview
     id="base"
     pagecolor="#ffffff"
     bordercolor="#666666"
     borderopacity="1.0"
     inkscape:pageopacity="0.0"
     inkscape:pageshadow="2"
     inkscape:zoom="0.7"
     inkscape:cx="584.12894"
     inkscape:cy="385.41512"
     inkscape:document-units="mm"
     inkscape:current-layer="layer2"
     showgrid="false"
     inkscape:window-width="1853"
     inkscape:window-height="1029"
     inkscape:window-x="67"
     inkscape:window-y="27"
     inkscape:window-maximized="1"
     fit-margin-top="0"
     fit-margin-left="0"
     fit-margin-right="0"
     fit-margin-bottom="0"
     scale-x="0.7" />
  <metadata
     id="metadata5">
    <rdf:RDF>
      <cc:Work
         rdf:about="">
        <dc:format>image/svg+xml</dc:format>
        <dc:type
           rdf:resource="http://purl.org/dc/dcmitype/StillImage" />
        <dc:title></dc:title>
      </cc:Work>
    </rdf:RDF>
  </metadata>
  <g
     inkscape:label="Layer 1"
     inkscape:groupmode="layer"
     id="layer1"
     transform="translate(15.878711,-91.083103)"
     sodipodi:insensitive="true"
     style="display:none">
    <path
       style="fill:none;stroke:#000000;stroke-width:1.60000002;stroke-linecap:round;stroke-linejoin:round;stroke-miterlimit:4;stroke-dasharray:none;stroke-opacity:1"
       d="m 0.87200975,110.63241 27.26149225,9.2208 22.584275,-16.83798"
       id="path4540"
       inkscape:connector-curvature="0" />
    <path
       style="fill:none;stroke:#000000;stroke-width:1.60000002;stroke-linecap:round;stroke-linejoin:round;stroke-miterlimit:4;stroke-dasharray:none;stroke-opacity:1"
       d="m 28.133502,119.85321 8.68626,26.05878"
       id="path4542"
       inkscape:connector-curvature="0" />
    <path
       style="fill:none;stroke:#000000;stroke-width:1.60000002;stroke-linecap:round;stroke-linejoin:round;stroke-miterlimit:4;stroke-dasharray:none;stroke-opacity:1"
       d="m 37.220667,121.7241 8.285356,24.18789"
       id="path4552"
       inkscape:connector-curvature="0" />
    <path
       style="fill:none;stroke:#000000;stroke-width:1.60000002;stroke-linecap:round;stroke-linejoin:round;stroke-miterlimit:4;stroke-dasharray:none;stroke-opacity:1"
       d="m 82.389219,121.99137 -7.617188,23.38608"
       id="path4554"
       inkscape:connector-curvature="0" />
    <path
       style="fill:none;stroke:#000000;stroke-width:1.60000002;stroke-linecap:round;stroke-linejoin:round;stroke-miterlimit:4;stroke-dasharray:none;stroke-opacity:1"
       d="m 83.591929,145.11018 8.15172,-24.85606 -21.515198,-16.57071"
       id="path4556"
       inkscape:connector-curvature="0" />
    <path
       style="fill:none;stroke:#000000;stroke-width:1.60000002;stroke-linecap:round;stroke-linejoin:round;stroke-miterlimit:4;stroke-dasharray:none;stroke-opacity:1"
       d="m 91.743649,120.25412 27.796031,-9.48807"
       id="path4558"
       inkscape:connector-curvature="0" />
    <path
       style="fill:none;stroke:#000000;stroke-width:1.60000002;stroke-linecap:round;stroke-linejoin:round;stroke-miterlimit:4;stroke-dasharray:none;stroke-opacity:1"
       d="m 139.05035,115.84417 20.44612,18.17433 28.46421,-6.01357"
       id="path4560"
       inkscape:connector-curvature="0" />
    <path
       style="fill:none;stroke:#000000;stroke-width:1.60000002;stroke-linecap:round;stroke-linejoin:round;stroke-miterlimit:4;stroke-dasharray:none;stroke-opacity:1"
       d="m 159.49647,134.0185 -3.07359,27.39513"
       id="path4562"
       inkscape:connector-curvature="0" />
    <path
       style="fill:none;stroke:#000000;stroke-width:1.60000002;stroke-linecap:round;stroke-linejoin:round;stroke-miterlimit:4;stroke-dasharray:none;stroke-opacity:1"
       d="m 166.84639,139.89843 -2.13816,21.11429"
       id="path4564"
       inkscape:connector-curvature="0" />
    <path
       style="fill:none;stroke:#000000;stroke-width:1.60000002;stroke-linecap:round;stroke-linejoin:round;stroke-miterlimit:4;stroke-dasharray:none;stroke-opacity:1"
       d="m 187.96068,179.85522 c 0,0 19.91158,-22.317 19.77794,-21.78246"
       id="path4566"
       inkscape:connector-curvature="0" />
    <path
       style="fill:none;stroke:#000000;stroke-width:1.60000002;stroke-linecap:round;stroke-linejoin:round;stroke-miterlimit:4;stroke-dasharray:none;stroke-opacity:1"
       d="m 204.13049,138.29481 13.22984,22.04974 29.26603,3.20723"
       id="path4568"
       inkscape:connector-curvature="0" />
    <path
       style="fill:none;stroke:#000000;stroke-width:1.60000002;stroke-linecap:round;stroke-linejoin:round;stroke-miterlimit:4;stroke-dasharray:none;stroke-opacity:1"
       d="M 217.36033,160.34455 191.30155,189.7442 165.3764,178.51888"
       id="path4570"
       inkscape:connector-curvature="0" />
    <path
       style="fill:none;stroke:#000000;stroke-width:1.60000002;stroke-linecap:round;stroke-linejoin:round;stroke-miterlimit:4;stroke-dasharray:none;stroke-opacity:1"
       d="m 50.450508,157.53822 18.708863,-0.13364"
       id="path4572"
       inkscape:connector-curvature="0" />
    <text
       xml:space="preserve"
       style="font-style:normal;font-weight:normal;font-size:23.09805298px;line-height:1.25;font-family:sans-serif;letter-spacing:0px;word-spacing:0px;fill:#000000;fill-opacity:1;stroke:none;stroke-width:0.57745135"
       x="-44.589348"
       y="116.41482"
       id="text4576"><tspan
         sodipodi:role="line"
         id="tspan4574"
         x="-44.589348"
         y="116.41482"
         style="stroke-width:0.57745135">H<tspan
   style="font-size:15.01373386px;baseline-shift:sub;stroke-width:0.57745135"
   id="tspan4578">2</tspan>N</tspan></text>
    <text
       xml:space="preserve"
       style="font-style:normal;font-weight:normal;font-size:21.89112854px;line-height:1.25;font-family:sans-serif;letter-spacing:0px;word-spacing:0px;fill:#000000;fill-opacity:1;stroke:none;stroke-width:0.54727823"
       x="53.75264"
       y="104.85964"
       id="text4582"><tspan
         sodipodi:role="line"
         id="tspan4580"
         x="53.75264"
         y="104.85964"
         style="stroke-width:0.54727823">S</tspan></text>
    <text
       xml:space="preserve"
       style="font-style:normal;font-weight:normal;font-size:23.78175926px;line-height:1.25;font-family:sans-serif;letter-spacing:0px;word-spacing:0px;fill:#000000;fill-opacity:1;stroke:none;stroke-width:0.59454393"
       x="31.215059"
       y="166.62538"
       id="text4586"><tspan
         sodipodi:role="line"
         id="tspan4584"
         x="31.215059"
         y="166.62538"
         style="stroke-width:0.59454393">N</tspan></text>
    <text
       xml:space="preserve"
       style="font-style:normal;font-weight:normal;font-size:23.78175926px;line-height:1.25;font-family:sans-serif;letter-spacing:0px;word-spacing:0px;fill:#000000;fill-opacity:1;stroke:none;stroke-width:0.59454393"
       x="146.05795"
       y="182.77742"
       id="text4586-3"><tspan
         sodipodi:role="line"
         id="tspan4584-6"
         x="146.05795"
         y="182.77742"
         style="stroke-width:0.59454393">N</tspan></text>
    <text
       xml:space="preserve"
       style="font-style:normal;font-weight:normal;font-size:21.89112854px;line-height:1.25;font-family:sans-serif;letter-spacing:0px;word-spacing:0px;fill:#000000;fill-opacity:1;stroke:none;stroke-width:0.54727823"
       x="122.76946"
       y="116.86383"
       id="text4582-7"><tspan
         sodipodi:role="line"
         id="tspan4580-5"
         x="122.76946"
         y="116.86383"
         style="stroke-width:0.54727823">S</tspan></text>
    <text
       xml:space="preserve"
       style="font-style:normal;font-weight:normal;font-size:21.89112854px;line-height:1.25;font-family:sans-serif;letter-spacing:0px;word-spacing:0px;fill:#000000;fill-opacity:1;stroke:none;stroke-width:0.54727823"
       x="191.3241"
       y="134.77089"
       id="text4582-7-3"><tspan
         sodipodi:role="line"
         id="tspan4580-5-5"
         x="191.3241"
         y="134.77089"
         style="stroke-width:0.54727823">S</tspan></text>
    <text
       xml:space="preserve"
       style="font-style:normal;font-weight:normal;font-size:22.70814705px;line-height:1.25;font-family:sans-serif;letter-spacing:0px;word-spacing:0px;fill:#000000;fill-opacity:1;stroke:none;stroke-width:0.56770366"
       x="248.10901"
       y="173.9214"
       id="text4654"><tspan
         sodipodi:role="line"
         id="tspan4652"
         x="248.10901"
         y="173.9214"
         style="stroke-width:0.56770366">NO<tspan
   style="font-size:14.76029491px;baseline-shift:sub;stroke-width:0.56770366"
   id="tspan4656">2</tspan></tspan></text>
    <text
       xml:space="preserve"
       style="font-style:normal;font-weight:normal;font-size:23.78175926px;line-height:1.25;font-family:sans-serif;letter-spacing:0px;word-spacing:0px;fill:#000000;fill-opacity:1;stroke:none;stroke-width:0.59454393"
       x="70.215454"
       y="166.46489"
       id="text4586-6"><tspan
         sodipodi:role="line"
         id="tspan4584-2"
         x="70.215454"
         y="166.46489"
         style="stroke-width:0.59454393">N</tspan></text>
  </g>
  <g
     inkscape:groupmode="layer"
     id="layer2"
     inkscape:label="Layer 2"
     transform="translate(-26.443689,-2.4707829)">
    <path
       sodipodi:type="star"
       style="fill:none;stroke:#000000;stroke-width:1.60000002;stroke-linecap:round;stroke-linejoin:round;stroke-miterlimit:4;stroke-dasharray:none;stroke-opacity:1"
       id="path14041"
       sodipodi:sides="5"
       sodipodi:cx="102.42393"
       sodipodi:cy="41.922947"
       sodipodi:r1="33.270493"
       sodipodi:r2="26.916395"
       sodipodi:arg1="-1.5707963"
       sodipodi:arg2="-0.9424778"
       inkscape:flatsided="true"
       inkscape:rounded="0"
       inkscape:randomized="0"
       d="M 102.42393,8.6524544 134.06605,31.6418 121.97983,68.839341 82.868022,68.83934 70.781809,31.641798 Z"
       inkscape:transform-center-x="1.3071428e-06"
       inkscape:transform-center-y="-3.1770499" />
    <path
       style="fill:none;stroke:#000000;stroke-width:1.60000002;stroke-linecap:butt;stroke-linejoin:miter;stroke-miterlimit:4;stroke-dasharray:none;stroke-opacity:1"
       d="M 70.779418,31.895457 34.109637,22.033701"
       id="path14043"
       inkscape:connector-curvature="0" />
    <path
       style="fill:none;stroke:#000000;stroke-width:1.60000002;stroke-linecap:butt;stroke-linejoin:miter;stroke-miterlimit:4;stroke-dasharray:none;stroke-opacity:1"
       d="M 134.06605,31.641801 173.38559,21.386727"
       id="path14045"
       inkscape:connector-curvature="0" />
    <path
       sodipodi:type="star"
       style="fill:none;stroke:#000000;stroke-width:1.60000002;stroke-linecap:round;stroke-linejoin:round;stroke-miterlimit:4;stroke-dasharray:none;stroke-opacity:1"
       id="path14041-5"
       sodipodi:sides="5"
       sodipodi:cx="192.38988"
       sodipodi:cy="55.216045"
       sodipodi:r1="33.270493"
       sodipodi:r2="26.916395"
       sodipodi:arg1="-1.5707963"
       sodipodi:arg2="-0.9424778"
       inkscape:flatsided="true"
       inkscape:rounded="0"
       inkscape:randomized="0"
       d="M 192.38988,21.945553 224.032,44.934899 211.94578,82.13244 172.83397,82.132439 160.74776,44.934897 Z"
       inkscape:transform-center-x="-2.1412337"
       inkscape:transform-center-y="1.070945"
       transform="rotate(23.979122,180.17371,141.86936)" />
    <path
       style="fill:none;stroke:#000000;stroke-width:1.60000002;stroke-linecap:butt;stroke-linejoin:miter;stroke-miterlimit:4;stroke-dasharray:none;stroke-opacity:1"
       d="M 201.78795,45.371375 173.38559,21.386727"
       id="path14062"
       inkscape:connector-curvature="0" />
    <path
       style="fill:none;stroke:#000000;stroke-width:1.60000002;stroke-linecap:butt;stroke-linejoin:miter;stroke-miterlimit:4;stroke-dasharray:none;stroke-opacity:1"
       d="m 259.65692,71.218212 39.96697,6.835406"
       id="path14064"
       inkscape:connector-curvature="0" />
    <circle
       style="fill:#5791ff;fill-opacity:1;stroke:#000000;stroke-width:1.60000002;stroke-linecap:round;stroke-linejoin:round;stroke-miterlimit:4;stroke-dasharray:none;stroke-opacity:1"
       id="path4790"
       cx="33.429512"
       cy="21.77413"
       r="6.185823" />
    <circle
       style="fill:#5791ff;fill-opacity:1;stroke:#000000;stroke-width:1.60000002;stroke-linecap:round;stroke-linejoin:round;stroke-miterlimit:4;stroke-dasharray:none;stroke-opacity:1"
       id="path4790-3"
       cx="71.093689"
       cy="31.639977"
       r="6.185823" />
    <circle
       style="fill:#5791ff;fill-opacity:1;stroke:#000000;stroke-width:1.60000002;stroke-linecap:round;stroke-linejoin:round;stroke-miterlimit:4;stroke-dasharray:none;stroke-opacity:1"
       id="path4790-6"
       cx="102.6315"
       cy="9.4566059"
       r="6.185823" />
    <circle
       style="fill:#5791ff;fill-opacity:1;stroke:#000000;stroke-width:1.60000002;stroke-linecap:round;stroke-linejoin:round;stroke-miterlimit:4;stroke-dasharray:none;stroke-opacity:1"
       id="path4790-7"
       cx="84.189903"
       cy="67.454094"
       r="6.185823" />
    <circle
       style="fill:#5791ff;fill-opacity:1;stroke:#000000;stroke-width:1.60000002;stroke-linecap:round;stroke-linejoin:round;stroke-miterlimit:4;stroke-dasharray:none;stroke-opacity:1"
       id="path4790-5"
       cx="121.34036"
       cy="67.454094"
       r="6.185823" />
    <circle
       style="fill:#5791ff;fill-opacity:1;stroke:#000000;stroke-width:1.60000002;stroke-linecap:round;stroke-linejoin:round;stroke-miterlimit:4;stroke-dasharray:none;stroke-opacity:1"
       id="path4790-35"
       cx="133.10022"
       cy="31.372707"
       r="6.185823" />
    <circle
       style="fill:#5791ff;fill-opacity:1;stroke:#000000;stroke-width:1.60000002;stroke-linecap:round;stroke-linejoin:round;stroke-miterlimit:4;stroke-dasharray:none;stroke-opacity:1"
       id="path4790-62"
       cx="173.19066"
       cy="22.285542"
       r="6.185823" />
    <circle
       style="fill:#5791ff;fill-opacity:1;stroke:#000000;stroke-width:1.60000002;stroke-linecap:round;stroke-linejoin:round;stroke-miterlimit:4;stroke-dasharray:none;stroke-opacity:1"
       id="path4790-9"
       cx="202.5903"
       cy="44.736183"
       r="6.185823" />
    <circle
       style="fill:#5791ff;fill-opacity:1;stroke:#000000;stroke-width:1.60000002;stroke-linecap:round;stroke-linejoin:round;stroke-miterlimit:4;stroke-dasharray:none;stroke-opacity:1"
       id="path4790-1"
       cx="198.314"
       cy="83.75753"
       r="6.185823" />
    <circle
       style="fill:#5791ff;fill-opacity:1;stroke:#000000;stroke-width:1.60000002;stroke-linecap:round;stroke-linejoin:round;stroke-miterlimit:4;stroke-dasharray:none;stroke-opacity:1"
       id="path4790-2"
       cx="232.52448"
       cy="98.99189"
       r="6.185823" />
    <circle
       style="fill:#5791ff;fill-opacity:1;stroke:#000000;stroke-width:1.60000002;stroke-linecap:round;stroke-linejoin:round;stroke-miterlimit:4;stroke-dasharray:none;stroke-opacity:1"
       id="path4790-70"
       cx="259.25143"
       cy="71.997681"
       r="6.185823" />
    <circle
       style="fill:#5791ff;fill-opacity:1;stroke:#000000;stroke-width:1.60000002;stroke-linecap:round;stroke-linejoin:round;stroke-miterlimit:4;stroke-dasharray:none;stroke-opacity:1"
       id="path4790-93"
       cx="240.54256"
       cy="36.985367"
       r="6.185823" />
    <circle
       style="fill:#5791ff;fill-opacity:1;stroke:#000000;stroke-width:1.60000002;stroke-linecap:round;stroke-linejoin:round;stroke-miterlimit:4;stroke-dasharray:none;stroke-opacity:1"
       id="path4790-60"
       cx="301.21274"
       cy="77.877602"
       r="6.185823" />
    <path
       style="fill:#57dc97;fill-opacity:1;stroke:none;stroke-width:1.39999998;stroke-linecap:round;stroke-linejoin:round;stroke-miterlimit:4;stroke-dasharray:none;stroke-opacity:1"
       id="path36104"
       d="m 104.55718,17.828379 c 0.007,0.248593 0.008,0.497313 0.0104,0.74598 -0.01,0.423675 0.0361,0.843684 0.0953,1.262272 0.0823,0.593769 0.22798,1.174893 0.38682,1.751948 0.21869,0.776136 0.54151,1.515947 0.87322,2.248943 0.4007,0.832365 0.82742,1.651762 1.27495,2.459792 0.46223,0.798176 0.96907,1.568424 1.50653,2.317553 0.50382,0.678446 1.06224,1.312554 1.64514,1.923388 0.51231,0.534484 1.08624,1.005168 1.66804,1.461224 0.50798,0.399109 1.06542,0.719486 1.64418,1.002045 0.5387,0.256877 1.11551,0.423235 1.68624,0.592737 0.61599,0.166554 1.24729,0.26595 1.87924,0.348247 0.56892,0.07463 1.14079,0.121654 1.71295,0.162517 0.49681,0.03444 0.99426,0.05571 1.49208,0.06725 0.54248,0.02366 1.08497,-0.0024 1.62729,-0.01797 0.46528,0.0022 0.9269,-0.03932 1.38722,-0.101992 0.0657,-0.0088 0.13141,-0.01752 0.19712,-0.02629 0,0 -0.27571,0.917424 -0.27571,0.917424 v 0 c -0.0668,0.0089 -0.13362,0.01791 -0.20042,0.02686 -0.48057,0.05847 -0.96341,0.08351 -1.44741,0.09143 -0.554,0.01747 -1.10823,0.03049 -1.66224,0.0031 -0.50534,-0.0197 -1.01067,-0.04151 -1.51522,-0.07649 -0.58581,-0.04187 -1.1711,-0.09351 -1.75332,-0.171687 -0.66147,-0.09498 -1.32267,-0.204392 -1.96362,-0.398292 -0.60161,-0.184466 -1.20623,-0.371122 -1.77118,-0.65242 -0.61379,-0.307548 -1.20438,-0.657623 -1.74436,-1.084145 -0.60492,-0.476393 -1.20261,-0.96591 -1.73541,-1.523602 -0.60079,-0.633986 -1.18206,-1.287438 -1.70227,-1.990159 -0.55253,-0.769058 -1.07475,-1.559188 -1.54687,-2.38059 -0.45577,-0.823364 -0.89265,-1.656859 -1.29555,-2.507595 -0.34487,-0.764135 -0.67527,-1.537161 -0.90045,-2.346586 -0.16264,-0.603879 -0.31201,-1.212228 -0.39475,-1.83306 -0.061,-0.446627 -0.12019,-0.894982 -0.10488,-1.347109 0.002,-0.249989 0.004,-0.500028 0.0104,-0.749945 0,0 0.91657,-0.174845 0.91657,-0.174845 z"
       inkscape:connector-curvature="0" />
    <path
       style="fill:#57dc97;fill-opacity:1;stroke:none;stroke-width:1.39999998;stroke-linecap:round;stroke-linejoin:round;stroke-miterlimit:4;stroke-dasharray:none;stroke-opacity:1"
       id="path36112"
       d="m 121.97077,31.52769 c 0.15289,0.220202 0.32726,0.423584 0.50484,0.624276 0.2957,0.32365 0.57636,0.660405 0.84867,1.003824 0.24376,0.332869 0.50281,0.654306 0.72782,1.000375 0.27917,0.540345 0.0383,1.047121 -0.21168,1.543204 -0.20588,0.370672 -0.42307,0.734888 -0.64245,1.097674 0,0 -0.96323,-0.15662 -0.96323,-0.15662 v 0 c 0.21548,-0.352283 0.42177,-0.709983 0.64042,-1.060275 0.0926,-0.166426 0.34059,-0.546142 0.39169,-0.72292 0.0214,-0.07405 -0.004,-0.125115 -0.0239,-0.194283 -0.21731,-0.329145 -0.4705,-0.632042 -0.70395,-0.949691 -0.26634,-0.336409 -0.54153,-0.665711 -0.8259,-0.987049 -0.17841,-0.209967 -0.35693,-0.420764 -0.50196,-0.655825 0,0 0.75963,-0.54269 0.75963,-0.54269 z"
       inkscape:connector-curvature="0" />
    <path
       style="fill:#57dc97;fill-opacity:1;stroke:none;stroke-width:1.39999998;stroke-linecap:round;stroke-linejoin:round;stroke-miterlimit:4;stroke-dasharray:none;stroke-opacity:1"
       id="path36114"
       d="m 120.21188,17.589743 c 0.16981,-0.236707 0.37334,-0.445877 0.58023,-0.649884 0.44831,-0.413985 0.9903,-0.722531 1.56926,-0.911042 0.61897,-0.199936 1.26237,-0.255258 1.90775,-0.283907 0.62881,-0.02652 1.25057,0.04517 1.87019,0.14167 0.57382,0.104687 1.12367,0.300617 1.67217,0.493431 0.48657,0.181268 0.94498,0.419561 1.39296,0.679791 0.46415,0.292812 0.88403,0.641798 1.28446,1.01512 0.42222,0.407742 0.79694,0.862048 1.1584,1.323582 0.31176,0.385433 0.58001,0.801328 0.81025,1.239673 0.17146,0.333143 0.29267,0.687416 0.38966,1.048311 0.0719,0.284545 0.0819,0.575933 0.072,0.867455 0,0 -0.93993,0.14106 -0.93993,0.14106 v 0 c 0.0224,-0.227569 0.0224,-0.456787 -0.0265,-0.681441 -0.0783,-0.316749 -0.18596,-0.625537 -0.33629,-0.915912 -0.21565,-0.404151 -0.47168,-0.783275 -0.76183,-1.138136 -0.3446,-0.433631 -0.69628,-0.86474 -1.09634,-1.248997 -0.3693,-0.339024 -0.75542,-0.658968 -1.18544,-0.919523 -0.41607,-0.239281 -0.84692,-0.448367 -1.30124,-0.605991 -0.51445,-0.176199 -1.03219,-0.351497 -1.57202,-0.432509 -0.58306,-0.07944 -1.16942,-0.124401 -1.75826,-0.08523 -0.58536,0.03943 -1.17049,0.108549 -1.72398,0.31568 -0.0666,0.02856 -0.13419,0.05486 -0.19976,0.08569 -0.06,0.02822 -0.22903,0.132169 -0.17677,0.09134 0.088,-0.06873 0.19167,-0.114681 0.28502,-0.175907 0.0988,-0.0648 -0.20371,0.119935 -0.30247,0.184804 -0.0447,0.02935 -0.0885,0.05996 -0.1328,0.08994 -0.20329,0.172566 -0.39277,0.35905 -0.57261,0.555871 0,0 -0.90607,-0.224939 -0.90607,-0.224939 z"
       inkscape:connector-curvature="0" />
    <path
       style="fill:#57dc97;fill-opacity:1;stroke:none;stroke-width:1.39999998;stroke-linecap:round;stroke-linejoin:round;stroke-miterlimit:4;stroke-dasharray:none;stroke-opacity:1"
       id="path36116"
       d="m 131.24541,21.375018 c 0.14078,0.194324 0.28345,0.387137 0.43138,0.576203 0.22284,0.285112 0.43708,0.576598 0.65466,0.865686 -0.0447,0.03523 0.43081,0.524869 0.26582,0.208191 0.0991,-0.187351 0.0423,-0.05198 -0.32283,0.133341 -0.0368,0.0187 0.0706,-0.04322 0.10343,-0.06835 0.1449,-0.110992 0.26813,-0.251191 0.39497,-0.381401 0.30722,-0.335546 0.62057,-0.665019 0.91711,-1.010123 0.15428,-0.176105 0.31324,-0.348143 0.47735,-0.515099 0,0 0.90248,0.287871 0.90248,0.287871 v 0 c -0.1546,0.157169 -0.30327,0.319066 -0.45398,0.47991 -0.30107,0.348995 -0.59494,0.703467 -0.92216,1.029204 -0.35511,0.407033 -0.75275,0.846567 -1.30594,0.96263 -0.0769,-0.01071 -0.15577,-0.01217 -0.23085,-0.03214 -0.27772,-0.07389 -0.45406,-0.337595 -0.61274,-0.554099 -0.21567,-0.287099 -0.43053,-0.574741 -0.64786,-0.860584 -0.15974,-0.209133 -0.31591,-0.421732 -0.45369,-0.646125 0,0 0.80285,-0.47512 0.80285,-0.47512 z"
       inkscape:connector-curvature="0" />
    <path
       style="fill:#57dc97;fill-opacity:1;stroke:none;stroke-width:1.39999998;stroke-linecap:round;stroke-linejoin:round;stroke-miterlimit:4;stroke-dasharray:none;stroke-opacity:1"
       id="path36122"
       d="m 136.96796,39.440751 c -0.0384,0.214403 -0.0266,0.430146 -0.008,0.645647 0.0305,0.306468 0.12147,0.602453 0.23036,0.889173 0.11534,0.312033 0.30072,0.582954 0.51734,0.832211 0.24822,0.257873 0.54049,0.46831 0.83732,0.666172 0.32496,0.212751 0.68927,0.350655 1.05195,0.483642 0.42698,0.170714 0.8699,0.296613 1.31207,0.42096 0.45211,0.132793 0.91592,0.215429 1.38203,0.279322 0.481,0.07078 0.9667,0.08637 1.45078,0.04614 0.43809,-0.01722 0.82777,-0.135895 1.21387,-0.334823 0.0589,-0.03346 0.23788,-0.129617 0.17676,-0.100372 -0.0918,0.04393 -0.17508,0.105217 -0.26897,0.144488 -0.0629,0.02631 0.11821,-0.06815 0.17536,-0.105333 0.17157,-0.111629 0.31705,-0.244657 0.46442,-0.385537 0.28421,-0.271705 0.50579,-0.595373 0.71008,-0.928842 0.18736,-0.306824 0.32653,-0.636819 0.43782,-0.977626 0.10185,-0.352257 0.16387,-0.715016 0.20243,-1.079256 0.0317,-0.38301 -0.0491,-0.75407 -0.14409,-1.121801 -0.1001,-0.401598 -0.2514,-0.783516 -0.4507,-1.145302 -0.22085,-0.362875 -0.53129,-0.657319 -0.83809,-0.9464 -0.33904,-0.310163 -0.70885,-0.583945 -1.0785,-0.856105 -0.35471,-0.266443 -0.71997,-0.519472 -1.10099,-0.746849 -0.33378,-0.198686 -0.68265,-0.367935 -1.04412,-0.509364 -0.26776,-0.10615 -0.55387,-0.147407 -0.83783,-0.183506 0,0 0.42862,-0.846193 0.42862,-0.846193 v 0 c 0.32981,0.05287 0.65775,0.122073 0.96666,0.253319 0.38789,0.161163 0.76377,0.348142 1.1223,0.567675 0.3955,0.241243 0.77785,0.503264 1.14706,0.783177 0.38739,0.289264 0.77535,0.579486 1.12761,0.911718 0.35128,0.334582 0.6983,0.680983 0.94506,1.103025 0.22435,0.407099 0.40143,0.834289 0.51535,1.286192 0.11062,0.434028 0.2138,0.869953 0.18951,1.32233 -0.0274,0.407197 -0.0964,0.811055 -0.19465,1.207158 -0.10951,0.387124 -0.24584,0.767 -0.44685,1.117229 -0.2099,0.384924 -0.44444,0.759752 -0.74237,1.083513 -0.45978,0.487448 -0.91758,0.861672 -1.56736,1.108038 -0.45909,0.177139 -0.93838,0.273801 -1.4313,0.289259 -0.52435,0.01702 -1.04784,-0.01046 -1.56617,-0.09601 -0.4901,-0.07814 -0.97681,-0.176877 -1.45269,-0.319515 -0.45664,-0.133308 -0.91124,-0.274211 -1.35291,-0.452116 -0.40363,-0.157614 -0.80266,-0.332103 -1.16141,-0.578504 -0.33702,-0.234431 -0.6695,-0.481216 -0.94442,-0.788678 -0.25632,-0.304983 -0.47766,-0.635437 -0.61886,-1.010652 -0.13329,-0.338733 -0.24196,-0.689963 -0.28519,-1.052586 -0.0228,-0.265401 -0.0495,-0.533668 5.5e-4,-0.79784 0,0 0.93,-0.07718 0.93,-0.07718 z"
       inkscape:connector-curvature="0" />
    <path
       style="fill:#57dc97;fill-opacity:1;stroke:none;stroke-width:1.39999998;stroke-linecap:round;stroke-linejoin:round;stroke-miterlimit:4;stroke-dasharray:none;stroke-opacity:1"
       id="path36124"
       d="m 140.94686,36.567661 c -0.005,-0.199522 -0.006,-0.399158 -0.006,-0.598736 -0.003,-0.338487 -0.005,-0.676972 -0.005,-1.015472 0.002,-0.402287 -0.0221,-0.802687 0.0514,-1.199664 0.1494,-0.565104 0.67569,-0.893071 1.2304,-0.992575 0.32942,-0.04523 0.66184,-0.06075 0.99374,-0.07494 0.31457,-0.02414 0.6287,0.0069 0.94263,0.02606 0.13026,0.0091 0.26065,0.01613 0.39099,0.02403 0,0 -0.37917,0.866231 -0.37917,0.866231 v 0 c -0.13121,-0.0067 -0.26238,-0.01411 -0.39358,-0.02101 -0.29426,-0.01597 -0.58824,-0.0248 -0.88248,1.85e-4 -0.28955,0.01687 -0.58423,0.02734 -0.8644,0.10856 -0.19936,0.08988 -0.44065,0.323659 0.14467,-0.132845 0.064,-0.04995 -0.37739,0.186433 -0.22982,0.17367 -0.13621,0.324204 -0.0368,0.70068 -0.0652,1.043116 -1.8e-4,0.33912 -0.002,0.678224 -0.005,1.017329 -9.3e-4,0.200399 -0.002,0.400854 -0.006,0.601195 0,0 -0.91657,0.174844 -0.91657,0.174844 z"
       inkscape:connector-curvature="0" />
  </g>
</svg>
